inDegrees=yes
name=ik_lifting_orientations
DataType=double
version=3
OpenSimVersion=4.5-2024-01-10-34fd6af
endheader
time	pelvis_tilt	pelvis_list	pelvis_rotation	pelvis_tx	pelvis_ty	pelvis_tz	hip_flexion_r	hip_adduction_r	hip_rotation_r	knee_angle_r	knee_angle_r_beta	ankle_angle_r	subtalar_angle_r	mtp_angle_r	hip_flexion_l	hip_adduction_l	hip_rotation_l	knee_angle_l	knee_angle_l_beta	ankle_angle_l	subtalar_angle_l	mtp_angle_l	lumbar_extension	lumbar_bending	lumbar_rotation	arm_flex_r	arm_add_r	arm_rot_r	elbow_flex_r	pro_sup_r	wrist_flex_r	wrist_dev_r	arm_flex_l	arm_add_l	arm_rot_l	elbow_flex_l	pro_sup_l	wrist_flex_l	wrist_dev_l
1.07	-4.146034955541867	-11.73192715088369	-73.88941384993909	0	0.9399999998679526	0	44.80234920985788	-10.07652562927859	0	59.89456430081735	1.045357351096718	-5.014592126409109	0	0	44.80234920985788	-10.07652562927859	0	59.89456430081735	1.045357351096718	-5.014592126409109	0	0	-45.86392573317256	21.60074411043967	-6.341715212326535	41.60353372293461	-8.425351217510588	-0.3336384647728948	7.160131730030957	1.715480784157785	0	0	0	-11.32725066154308	0	88.31616781426271	1.715480784157785	0	0
1.08	-4.566830839644355	-12.39949125737906	-74.50170235956253	0	0.9399999998679526	0	44.80244128019068	-10.07640114052528	0	59.89460290791749	1.04535802491773	-5.014561167038685	0	0	44.80244128019068	-10.07640114052528	0	59.89460290791749	1.04535802491773	-5.014561167038685	0	0	-47.30999029613439	22.19514719134816	-5.930463397229564	42.34251789868357	-8.317302848155668	0.2370628917045834	7.310640143548042	1.714924549127128	0	0	0	-11.32812769540999	0	88.31671372447377	1.714924549127128	0	0
1.09	-4.928323282110498	-13.0087321637136	-74.61325226474757	0	0.9399999998679526	0	44.80253215218184	-10.07627823798998	0	59.89464097179859	1.045358689257782	-5.014530608912207	0	0	44.80253215218184	-10.07627823798998	0	59.89464097179859	1.045358689257782	-5.014530608912207	0	0	-48.41209804966724	23.09905942593681	-6.1044768204861	42.94414575674571	-8.142455127343519	0.8752295355174736	7.353078454200976	1.714375723884162	0	0	0	-11.32899278635424	0	88.31725236242831	1.714375723884162	0	0
1.1	-5.301207825980757	-13.61510164168704	-74.73479426433616	0	0.9399999998679526	0	44.8026270245319	-10.07615021053597	0	59.89468074785313	1.045359383480897	-5.014498799233793	0	0	44.8026270245319	-10.07615021053597	0	59.89468074785313	1.045359383480897	-5.014498799233793	0	0	-49.70803609903366	23.90885044503076	-5.898643789879894	43.66359131789339	-8.124736879424695	1.272138435254751	7.402899640931435	1.71380247487036	0	0	0	-11.32989669468389	0	88.31781497081757	1.71380247487036	0	0
1.11	-5.597422663821024	-14.24659394467713	-74.4789581526923	0	0.9399999998679526	0	44.80274225655794	-10.07599582970896	0	59.89472929088016	1.045360230716547	-5.014460508137824	0	0	44.80274225655794	-10.07599582970896	0	59.89472929088016	1.045360230716547	-5.014460508137824	0	0	-51.07747139051641	24.76575049702658	-5.559903561706074	44.37952827971363	-8.296924045831055	1.371157168059021	7.405026440448139	1.71310483760393	0	0	0	-11.33099852585778	0	88.31849965865612	1.71310483760393	0	0
1.12	-5.97779877054028	-14.92307607801078	-74.34881175774949	0	0.9399999998679526	0	44.80286472179492	-10.07583263037028	0	59.89478105721514	1.045361134209534	-5.014420082684876	0	0	44.80286472179492	-10.07583263037028	0	59.89478105721514	1.045361134209534	-5.014420082684876	0	0	-52.3062134144615	25.84736435617271	-5.626196743705228	44.92850789280381	-8.307554652023207	2.284259128049324	7.511624142615499	1.712362343277759	0	0	0	-11.33217259720227	0	88.31922837099344	1.712362343277759	0	0
1.13	-6.435473342422649	-15.50254506789484	-74.8101047571725	0	0.9399999998679526	0	44.80304419079413	-10.07559502142529	0	59.89485701609806	1.045362459942137	-5.014361371011955	0	0	44.80304419079413	-10.07559502142529	0	59.89485701609806	1.045362459942137	-5.014361371011955	0	0	-53.6234140515849	26.506380316403	-5.248593739445409	45.41915235791451	-8.192628370614548	3.4290058349248	7.642478227526065	1.711273314393301	0	0	0	-11.33389547102449	0	88.3202971856583	1.711273314393301	0	0
1.14	-6.91002775136491	-16.06620487352921	-75.31715341755918	0	0.9399999998679526	0	44.80313568464275	-10.07547307468318	0	59.89489557808584	1.04536313297579	-5.014331190113792	0	0	44.80313568464275	-10.07547307468318	0	59.89489557808584	1.04536313297579	-5.014331190113792	0	0	-54.98544232538251	27.26155928976068	-5.028815381443876	45.95017277055648	-8.079618904562393	4.64225576296934	7.862551885214438	1.710719035180283	0	0	0	-11.33477123047159	0	88.32084117646012	1.710719035180283	0	0
1.15	-7.330322352173187	-16.65698029634362	-75.65365120686045	0	0.9399999998679526	0	44.80323802873498	-10.07533640930699	0	59.89493859997748	1.04536388384945	-5.014297366352526	0	0	44.80323802873498	-10.07533640930699	0	59.89493859997748	1.04536388384945	-5.014297366352526	0	0	-56.51261944307954	27.54251330494093	-4.158810924603039	46.50643774764215	-7.995359774718518	4.967862087415815	7.799685939204564	1.710099574128571	0	0	0	-11.33574918790718	0	88.3214491391771	1.710099574128571	0	0
1.16	-7.827410834619211	-17.20423300736821	-76.28083534375662	0	0.9399999998679526	0	44.80333671213971	-10.07520467703498	0	59.89498007488717	1.045364607723181	-5.014264770967605	0	0	44.80333671213971	-10.07520467703498	0	59.89498007488717	1.045364607723181	-5.014264770967605	0	0	-58.08159829767163	27.600015801005	-3.071572684296162	47.05446272801502	-8.084181920002669	5.49305432116101	7.824993575439029	1.709502266734564	0	0	0	-11.33669216790336	0	88.3220353594515	1.709502266734564	0	0
1.17	-8.32604288906211	-17.77156352559109	-76.90020164197279	0	0.9399999998679526	0	44.80342764281008	-10.07508376550693	0	59.89501837782299	1.045365276235524	-5.01423488389301	0	0	44.80342764281008	-10.07508376550693	0	59.89501837782299	1.045365276235524	-5.01423488389301	0	0	-59.48482469304678	27.6010742603356	-2.093456020323369	47.43995942673799	-8.118274592844219	5.973008333451425	7.821384774453517	1.708951346436888	0	0	0	-11.33756260626259	0	88.3225760536934	1.708951346436888	0	0
1.18	-8.758894054737645	-18.13318075788628	-77.85192528048744	0	0.9399999998679526	0	44.80350251099038	-10.07498513855961	0	59.89505012129732	1.045365830263667	-5.014210556245406	0	0	44.80350251099038	-10.07498513855961	0	59.89505012129732	1.045365830263667	-5.014210556245406	0	0	-60.63807690088294	27.19317423561121	-0.958049732231656	47.7170120852617	-8.237454778124917	6.076156809950773	7.720831922365703	1.708496550395917	0	0	0	-11.33828273968648	0	88.32302240798857	1.708496550395917	0	0
1.19	-9.288096681983504	-18.57902911902244	-78.79115058858609	0	0.9399999998679526	0	44.80359091733683	-10.07487032005749	0	59.89508800977486	1.045366491542349	-5.014182316792167	0	0	44.80359091733683	-10.07487032005749	0	59.89508800977486	1.045366491542349	-5.014182316792167	0	0	-61.93763723314327	26.67818949598907	0.633324409577407	47.93634171474979	-8.458079045223833	5.679728219596146	7.766981621122937	1.707957230718709	0	0	0	-11.33913976231434	0	88.32355171716628	1.707957230718709	0	0
1.2	-9.826658537073913	-19.00760281086864	-79.74389516056084	0	0.9399999998679526	0	44.80370448110602	-10.07471947693282	0	59.89513577461799	1.045367325196128	-5.0141450675593	0	0	44.80370448110602	-10.07471947693282	0	59.89513577461799	1.045367325196128	-5.0141450675593	0	0	-63.3622313687472	26.14470458287347	2.379965056598689	48.28531624548475	-8.763033097809505	4.922948896145013	7.72630224056633	1.707269376302725	0	0	0	-11.34022618680753	0	88.32422680378048	1.707269376302725	0	0
1.21	-10.08375649192957	-19.24900840936379	-80.04935116673499	0	0.9399999998679526	0	44.80380681066998	-10.07458288481464	0	59.89517860253048	1.045368072684213	-5.014111316139187	0	0	44.80380681066998	-10.07458288481464	0	59.89517860253048	1.045368072684213	-5.014111316139187	0	0	-64.28388998371078	26.03026112095241	3.283279885714883	48.40286036165294	-8.808143503590559	4.274410615954244	7.795228929543776	1.706650670011708	0	0	0	-11.34120187814447	0	88.32483402571674	1.706650670011708	0	0
1.22	-10.51633932117893	-19.67723781933147	-80.64017555005276	0	0.9399999998679526	0	44.80392258967556	-10.07442898454938	0	59.89522717328431	1.045368920403787	-5.014073331173683	0	0	44.80392258967556	-10.07442898454938	0	59.89522717328431	1.045368920403787	-5.014073331173683	0	0	-65.45771334287096	25.77004119604678	4.393731697479023	48.46553537260266	-8.845453529026647	3.887405355325445	8.051438739507178	1.705949925882456	0	0	0	-11.34230786027603	0	88.32552176276043	1.705949925882456	0	0
1.23	-10.73365883891039	-20.13922024959385	-80.45876206912682	0	0.9399999998679526	0	44.80404124730334	-10.07427104995969	0	59.89527683459928	1.045369787157244	-5.014034356764731	0	0	44.80404124730334	-10.07427104995969	0	59.89527683459928	1.045369787157244	-5.014034356764731	0	0	-66.50214617612404	26.00837844750682	5.138000070791621	48.46897897740478	-8.902469476399075	3.263100348857324	8.159617446632188	1.705232303610535	0	0	0	-11.34343968263527	0	88.32622606462671	1.705232303610535	0	0
1.24	-10.81016800878058	-20.70701256612126	-79.46441480480129	0	0.9399999998679526	0	44.80413502936622	-10.07414735776725	0	59.89531634338429	1.045370476715626	-5.014003893876668	0	0	44.80413502936622	-10.07414735776725	0	59.89531634338429	1.045370476715626	-5.014003893876668	0	0	-67.35217595939173	26.85221306016285	5.505745542442619	48.29665748824456	-9.100783211739865	2.673502334334532	8.374893088675773	1.704663628408486	0	0	0	-11.34433857484615	0	88.32678418425114	1.704663628408486	0	0
